<svg width="16" height="17" viewBox="0 0 16 17" fill="none" xmlns="http://www.w3.org/2000/svg">
<g clip-path="url(#clip0_6822_4844)">
<path d="M6.00004 5.16665C4.00004 5.16665 3.33337 7.16665 3.33337 8.83331C3.33337 10.8333 4.66671 13.8333 6.00004 13.8333C6.72537 13.8026 7.11937 13.5 8.00004 13.5C8.87471 13.5 9.00004 13.8333 10 13.8333C11 13.8333 12.6667 11.8333 12.6667 10.5C12.648 10.4933 11.0187 10.2313 11 8.49998C10.9874 7.05331 12.6107 6.53065 12.6667 6.49998C11.9847 5.50531 10.6994 5.19131 10.3334 5.16665C9.37804 5.09265 8.44671 5.83331 8.00004 5.83331C7.54671 5.83331 6.73337 5.16665 6.00004 5.16665Z" stroke="white" stroke-width="2" stroke-linecap="round" stroke-linejoin="round"/>
<path d="M8.00004 3.16665C8.35366 3.16665 8.6928 3.02617 8.94285 2.77612C9.1929 2.52607 9.33337 2.18693 9.33337 1.83331C8.97975 1.83331 8.64061 1.97379 8.39056 2.22384C8.14052 2.47389 8.00004 2.81302 8.00004 3.16665Z" stroke="white" stroke-width="2" stroke-linecap="round" stroke-linejoin="round"/>
</g>
<defs>
<clipPath id="clip0_6822_4844">
<rect width="16" height="16" fill="white" transform="translate(0 0.5)"/>
</clipPath>
</defs>
</svg>
