<svg width="25" height="24" viewBox="0 0 25 24" fill="none" xmlns="http://www.w3.org/2000/svg">
<path d="M8.3335 22C8.88578 22 9.3335 21.5523 9.3335 21C9.3335 20.4477 8.88578 20 8.3335 20C7.78121 20 7.3335 20.4477 7.3335 21C7.3335 21.5523 7.78121 22 8.3335 22Z" stroke="#CA3214" stroke-width="1.5" stroke-linecap="round" stroke-linejoin="round"/>
<path d="M19.3335 22C19.8858 22 20.3335 21.5523 20.3335 21C20.3335 20.4477 19.8858 20 19.3335 20C18.7812 20 18.3335 20.4477 18.3335 21C18.3335 21.5523 18.7812 22 19.3335 22Z" stroke="#CA3214" stroke-width="1.5" stroke-linecap="round" stroke-linejoin="round"/>
<path d="M2.38354 2.04999H4.38355L7.04354 14.47C7.14112 14.9248 7.39422 15.3315 7.75926 15.6198C8.1243 15.9082 8.57845 16.0603 9.04354 16.05H18.8235C19.2787 16.0493 19.72 15.8933 20.0746 15.6078C20.4291 15.3224 20.6757 14.9245 20.7735 14.48L22.4235 7.04999H5.45354" stroke="#CA3214" stroke-width="1.5" stroke-linecap="round" stroke-linejoin="round"/>
</svg>
