<svg width="32" height="32" viewBox="0 0 32 32" fill="none" xmlns="http://www.w3.org/2000/svg">
<g id="tabler-icon-chef-hat">
<path id="Vector" d="M16.0001 4C18.5574 4 20.6934 5.8 21.2134 8.20133C22.5789 7.8318 24.0353 8.01985 25.2622 8.72411C26.489 9.42837 27.3859 10.5912 27.7554 11.9567C28.125 13.3222 27.9369 14.7786 27.2327 16.0054C26.5284 17.2323 25.3656 18.1291 24.0001 18.4987V28H8.0001V18.4987C7.32396 18.3155 6.69053 18.001 6.13595 17.573C5.58137 17.1451 5.11652 16.6121 4.76793 16.0045C4.41934 15.3969 4.19384 14.7266 4.1043 14.0318C4.01476 13.3371 4.06295 12.6315 4.2461 11.9553C4.42925 11.2792 4.74378 10.6458 5.17173 10.0912C5.59969 9.53661 6.13268 9.07176 6.74028 8.72317C7.34789 8.37457 8.0182 8.14907 8.71296 8.05954C9.40771 7.97 10.1133 8.01818 10.7894 8.20133C11.0479 7.01142 11.7057 5.94577 12.6536 5.18148C13.6015 4.41718 14.7824 4.00026 16.0001 4Z" stroke="#1A1523" stroke-width="2" stroke-linecap="round" stroke-linejoin="round"/>
<path id="Vector_2" d="M8.21484 22.6787L24.0002 22.6667" stroke="#1A1523" stroke-width="2" stroke-linecap="round" stroke-linejoin="round"/>
</g>
</svg>
