<svg width="36" height="36" viewBox="0 0 36 36" fill="none" xmlns="http://www.w3.org/2000/svg">
<rect width="36" height="36" rx="4" fill="url(#paint0_angular_6797_3973)"/>
<path d="M22.5 13.5V13.51M10 14C10 12.9391 10.4214 11.9217 11.1716 11.1716C11.9217 10.4214 12.9391 10 14 10H22C23.0609 10 24.0783 10.4214 24.8284 11.1716C25.5786 11.9217 26 12.9391 26 14V22C26 23.0609 25.5786 24.0783 24.8284 24.8284C24.0783 25.5786 23.0609 26 22 26H14C12.9391 26 11.9217 25.5786 11.1716 24.8284C10.4214 24.0783 10 23.0609 10 22V14ZM15 18C15 18.7956 15.3161 19.5587 15.8787 20.1213C16.4413 20.6839 17.2044 21 18 21C18.7956 21 19.5587 20.6839 20.1213 20.1213C20.6839 19.5587 21 18.7956 21 18C21 17.2044 20.6839 16.4413 20.1213 15.8787C19.5587 15.3161 18.7956 15 18 15C17.2044 15 16.4413 15.3161 15.8787 15.8787C15.3161 16.4413 15 17.2044 15 18Z" stroke="white" stroke-width="1.5" stroke-linecap="round" stroke-linejoin="round"/>
<defs>
<radialGradient id="paint0_angular_6797_3973" cx="0" cy="0" r="1" gradientUnits="userSpaceOnUse" gradientTransform="translate(18 18) rotate(-90) scale(12.1072)">
<stop offset="0.112803" stop-color="#9854EE"/>
<stop offset="0.390802" stop-color="#EEC354"/>
<stop offset="0.629135" stop-color="#EE5454"/>
<stop offset="0.873177" stop-color="#EB54EE"/>
</radialGradient>
</defs>
</svg>
