<svg width="36" height="36" viewBox="0 0 36 36" fill="none" xmlns="http://www.w3.org/2000/svg">
<rect width="36" height="36" rx="4" fill="#54ACEE"/>
<path d="M26.3333 11.3417C25.5 11.75 24.6833 11.9158 23.8333 12.1667C22.8992 11.1125 21.5142 11.0542 20.1833 11.5525C18.8525 12.0508 17.9808 13.2692 18 14.6667V15.5C15.2958 15.5692 12.8875 14.3375 11.3333 12.1667C11.3333 12.1667 7.84833 18.3608 14.6667 21.3333C13.1067 22.3725 11.5508 23.0733 9.66666 23C12.4233 24.5025 15.4275 25.0192 18.0283 24.2642C21.0117 23.3975 23.4633 21.1617 24.4042 17.8125C24.6848 16.7939 24.8242 15.7416 24.8183 14.685C24.8183 14.4775 26.0767 12.375 26.3333 11.3408V11.3417Z" stroke="white" stroke-width="1.5" stroke-linecap="round" stroke-linejoin="round"/>
</svg>
