<svg width="36" height="36" viewBox="0 0 36 36" fill="none" xmlns="http://www.w3.org/2000/svg">
<rect width="36" height="36" rx="4" fill="#908E96"/>
<path d="M15.5 20.4999L20.5 15.4999M17.1667 12.9999L17.5525 12.5533C18.334 11.7719 19.3939 11.3329 20.499 11.333C21.6042 11.3331 22.664 11.7722 23.4454 12.5537C24.2268 13.3352 24.6658 14.3951 24.6657 15.5002C24.6656 16.6054 24.2265 17.6652 23.445 18.4466L23 18.8333M18.8333 22.9999L18.5025 23.4449C17.7119 24.2267 16.6448 24.6652 15.5329 24.6652C14.421 24.6652 13.354 24.2267 12.5633 23.4449C12.1736 23.0595 11.8642 22.6007 11.6531 22.095C11.4419 21.5893 11.3332 21.0467 11.3332 20.4986C11.3332 19.9506 11.4419 19.408 11.6531 18.9023C11.8642 18.3965 12.1736 17.9377 12.5633 17.5524L13 17.1665" stroke="white" stroke-width="1.5" stroke-linecap="round" stroke-linejoin="round"/>
</svg>
