<svg width="20" height="21" viewBox="0 0 20 21" fill="none" xmlns="http://www.w3.org/2000/svg">
<path d="M3.33331 16.3334C3.33331 16.7754 3.50891 17.1994 3.82147 17.5119C4.13403 17.8245 4.55795 18.0001 4.99998 18.0001C5.44201 18.0001 5.86593 17.8245 6.17849 17.5119C6.49105 17.1994 6.66665 16.7754 6.66665 16.3334C6.66665 15.8914 6.49105 15.4675 6.17849 15.1549C5.86593 14.8423 5.44201 14.6667 4.99998 14.6667C4.55795 14.6667 4.13403 14.8423 3.82147 15.1549C3.50891 15.4675 3.33331 15.8914 3.33331 16.3334Z" stroke="#E54D2E" stroke-width="1.5" stroke-linecap="round" stroke-linejoin="round"/>
<path d="M12.5 16.3334C12.5 16.7754 12.6756 17.1994 12.9882 17.5119C13.3007 17.8245 13.7246 18.0001 14.1667 18.0001C14.6087 18.0001 15.0326 17.8245 15.3452 17.5119C15.6577 17.1994 15.8333 16.7754 15.8333 16.3334C15.8333 15.8914 15.6577 15.4675 15.3452 15.1549C15.0326 14.8423 14.6087 14.6667 14.1667 14.6667C13.7246 14.6667 13.3007 14.8423 12.9882 15.1549C12.6756 15.4675 12.5 15.8914 12.5 16.3334Z" stroke="#E54D2E" stroke-width="1.5" stroke-linecap="round" stroke-linejoin="round"/>
<path d="M14.1666 14.6667H4.99998V3H3.33331" stroke="#E54D2E" stroke-width="1.5" stroke-linecap="round" stroke-linejoin="round"/>
<path d="M5 4.66675L11.6667 5.14258M16.1917 8.83425L15.8342 11.3342H5.00083" stroke="#E54D2E" stroke-width="1.5" stroke-linecap="round" stroke-linejoin="round"/>
<path d="M14.1667 3L17.5 6.33333" stroke="#E54D2E" stroke-width="1.5" stroke-linecap="round" stroke-linejoin="round"/>
<path d="M17.5 3L14.1667 6.33333" stroke="#E54D2E" stroke-width="1.5" stroke-linecap="round" stroke-linejoin="round"/>
</svg>
