<svg width="16" height="16" viewBox="0 0 16 16" fill="none" xmlns="http://www.w3.org/2000/svg">
<g clip-path="url(#clip0_361_1726)">
<path d="M5.33334 6.66665C5.33334 6.31302 5.47382 5.97389 5.72387 5.72384C5.97392 5.47379 6.31305 5.33331 6.66668 5.33331H12C12.3536 5.33331 12.6928 5.47379 12.9428 5.72384C13.1929 5.97389 13.3333 6.31302 13.3333 6.66665V12C13.3333 12.3536 13.1929 12.6927 12.9428 12.9428C12.6928 13.1928 12.3536 13.3333 12 13.3333H6.66668C6.31305 13.3333 5.97392 13.1928 5.72387 12.9428C5.47382 12.6927 5.33334 12.3536 5.33334 12V6.66665Z" stroke="#6F6E77" stroke-linecap="round" stroke-linejoin="round"/>
<path d="M10.6667 5.33335V4.00002C10.6667 3.6464 10.5262 3.30726 10.2761 3.05721C10.0261 2.80716 9.68695 2.66669 9.33332 2.66669H3.99999C3.64637 2.66669 3.30723 2.80716 3.05718 3.05721C2.80713 3.30726 2.66666 3.6464 2.66666 4.00002V9.33335C2.66666 9.68698 2.80713 10.0261 3.05718 10.2762C3.30723 10.5262 3.64637 10.6667 3.99999 10.6667H5.33332" stroke="#6F6E77" stroke-linecap="round" stroke-linejoin="round"/>
</g>
<defs>
<clipPath id="clip0_361_1726">
<rect width="16" height="16" fill="white"/>
</clipPath>
</defs>
</svg>
