<svg width="16" height="16" viewBox="0 0 16 16" fill="none" xmlns="http://www.w3.org/2000/svg">
<path d="M5.33325 7.33331V3.99998C5.33325 3.29274 5.6142 2.61446 6.1143 2.11436C6.6144 1.61426 7.29267 1.33331 7.99992 1.33331C8.70716 1.33331 9.38544 1.61426 9.88554 2.11436C10.3856 2.61446 10.6666 3.29274 10.6666 3.99998M3.33325 8.66665C3.33325 8.31302 3.47373 7.97389 3.72378 7.72384C3.97382 7.47379 4.31296 7.33331 4.66659 7.33331H11.3333C11.6869 7.33331 12.026 7.47379 12.2761 7.72384C12.5261 7.97389 12.6666 8.31302 12.6666 8.66665V12.6666C12.6666 13.0203 12.5261 13.3594 12.2761 13.6095C12.026 13.8595 11.6869 14 11.3333 14H4.66659C4.31296 14 3.97382 13.8595 3.72378 13.6095C3.47373 13.3594 3.33325 13.0203 3.33325 12.6666V8.66665ZM7.33325 10.6666C7.33325 10.8435 7.40349 11.013 7.52851 11.1381C7.65354 11.2631 7.82311 11.3333 7.99992 11.3333C8.17673 11.3333 8.3463 11.2631 8.47132 11.1381C8.59635 11.013 8.66658 10.8435 8.66658 10.6666C8.66658 10.4898 8.59635 10.3203 8.47132 10.1952C8.3463 10.0702 8.17673 9.99998 7.99992 9.99998C7.82311 9.99998 7.65354 10.0702 7.52851 10.1952C7.40349 10.3203 7.33325 10.4898 7.33325 10.6666Z" stroke="#6F6E77" stroke-linecap="round" stroke-linejoin="round"/>
</svg>
