<svg width="20" height="20" viewBox="0 0 20 20" fill="none" xmlns="http://www.w3.org/2000/svg">
<g id="tabler-icon-dots-vertical">
<g id="Vector">
<path d="M9.16675 9.99998C9.16675 10.221 9.25455 10.433 9.41083 10.5892C9.56711 10.7455 9.77907 10.8333 10.0001 10.8333C10.2211 10.8333 10.4331 10.7455 10.5893 10.5892C10.7456 10.433 10.8334 10.221 10.8334 9.99998C10.8334 9.77897 10.7456 9.56701 10.5893 9.41072C10.4331 9.25444 10.2211 9.16665 10.0001 9.16665C9.77907 9.16665 9.56711 9.25444 9.41083 9.41072C9.25455 9.56701 9.16675 9.77897 9.16675 9.99998Z" stroke="#6F6E77" stroke-width="1.5" stroke-linecap="round" stroke-linejoin="round"/>
<path d="M9.16675 15.8333C9.16675 16.0543 9.25455 16.2663 9.41083 16.4226C9.56711 16.5789 9.77907 16.6666 10.0001 16.6666C10.2211 16.6666 10.4331 16.5789 10.5893 16.4226C10.7456 16.2663 10.8334 16.0543 10.8334 15.8333C10.8334 15.6123 10.7456 15.4003 10.5893 15.2441C10.4331 15.0878 10.2211 15 10.0001 15C9.77907 15 9.56711 15.0878 9.41083 15.2441C9.25455 15.4003 9.16675 15.6123 9.16675 15.8333Z" stroke="#6F6E77" stroke-width="1.5" stroke-linecap="round" stroke-linejoin="round"/>
<path d="M9.16675 4.16665C9.16675 4.38766 9.25455 4.59962 9.41083 4.7559C9.56711 4.91218 9.77907 4.99998 10.0001 4.99998C10.2211 4.99998 10.4331 4.91218 10.5893 4.7559C10.7456 4.59962 10.8334 4.38766 10.8334 4.16665C10.8334 3.94563 10.7456 3.73367 10.5893 3.57739C10.4331 3.42111 10.2211 3.33331 10.0001 3.33331C9.77907 3.33331 9.56711 3.42111 9.41083 3.57739C9.25455 3.73367 9.16675 3.94563 9.16675 4.16665Z" stroke="#6F6E77" stroke-width="1.5" stroke-linecap="round" stroke-linejoin="round"/>
</g>
</g>
</svg>
