<svg xmlns="http://www.w3.org/2000/svg" width="16" height="17" viewBox="0 0 16 17" fill="none">
  <path d="M14 5.778V8.46733C12.7907 8.34736 11.6376 7.89743 10.6667 7.16667V10.1667C10.6665 10.9808 10.437 11.7783 10.0045 12.468C9.57194 13.1577 8.95388 13.7116 8.22111 14.0662C7.48833 14.4209 6.67047 14.5619 5.86123 14.4732C5.05199 14.3846 4.2841 14.0697 3.64554 13.5648C3.00697 13.0598 2.52356 12.3852 2.25068 11.6182C1.97781 10.8512 1.92651 10.0229 2.10266 9.22806C2.27881 8.43326 2.67529 7.70416 3.24667 7.12428C3.81805 6.5444 4.54122 6.1372 5.33333 5.94933V8.83333C5.10606 9.00379 4.92613 9.22951 4.81063 9.48907C4.69513 9.74862 4.64789 10.0334 4.6734 10.3163C4.69891 10.5993 4.79633 10.871 4.9564 11.1057C5.11647 11.3404 5.33388 11.5303 5.58798 11.6574C5.84208 11.7844 6.12444 11.8444 6.40825 11.8316C6.69205 11.8189 6.96789 11.7338 7.20955 11.5844C7.45122 11.4351 7.65069 11.2264 7.78904 10.9783C7.92738 10.7301 8 10.4508 8 10.1667V2.5H10.722C10.8608 3.31894 11.2509 4.07442 11.8382 4.66175C12.4256 5.24909 13.1811 5.63919 14 5.778Z" stroke="#6F6E77" stroke-linecap="round" stroke-linejoin="round"/>
</svg>