<svg xmlns="http://www.w3.org/2000/svg" width="16" height="17" viewBox="0 0 16 17" fill="none">
  <path d="M14.6667 3.17334C14 3.50001 13.3467 3.63268 12.6667 3.83334C11.9193 2.99001 10.8113 2.94334 9.74666 3.34201C8.68199 3.74068 7.98466 4.71534 7.99999 5.83334V6.50001C5.83666 6.55534 3.90999 5.57001 2.66666 3.83334C2.66666 3.83334 -0.121338 8.78868 5.33333 11.1667C4.08533 11.998 2.84066 12.5587 1.33333 12.5C3.53866 13.702 5.94199 14.1153 8.02266 13.5113C10.4093 12.818 12.3707 11.0293 13.1233 8.35001C13.3479 7.53512 13.4593 6.69325 13.4547 5.84801C13.4547 5.68201 14.4613 4.00001 14.6667 3.17268V3.17334Z" stroke="#6F6E77" stroke-linecap="round" stroke-linejoin="round"/>
</svg>