<svg xmlns="http://www.w3.org/2000/svg" width="16" height="17" viewBox="0 0 16 17" fill="none">
  <path d="M6 10.5L10 6.5M7.33333 4.50004L7.642 4.14271C8.2672 3.51759 9.11513 3.16644 9.99924 3.1665C10.8833 3.16657 11.7312 3.51784 12.3563 4.14304C12.9814 4.76824 13.3326 5.61617 13.3325 6.50028C13.3325 7.38439 12.9812 8.23226 12.356 8.85737L12 9.16671M8.66666 12.5L8.40199 12.856C7.76949 13.4815 6.91585 13.8323 6.02633 13.8323C5.1368 13.8323 4.28316 13.4815 3.65066 12.856C3.3389 12.5477 3.09139 12.1807 2.92247 11.7761C2.75354 11.3715 2.66656 10.9374 2.66656 10.499C2.66656 10.0606 2.75354 9.62649 2.92247 9.2219C3.09139 8.81732 3.3389 8.45027 3.65066 8.142L3.99999 7.83333" stroke="#6F6E77" stroke-linecap="round" stroke-linejoin="round"/>
</svg>