<svg xmlns="http://www.w3.org/2000/svg" width="24" height="24" viewBox="0 0 24 24" fill="none">
  <path d="M3 9C3 7.93913 3.42143 6.92172 4.17157 6.17157C4.92172 5.42143 5.93913 5 7 5H17C18.0609 5 19.0783 5.42143 19.8284 6.17157C20.5786 6.92172 21 7.93913 21 9V15C21 16.0609 20.5786 17.0783 19.8284 17.8284C19.0783 18.5786 18.0609 19 17 19H7C5.93913 19 4.92172 18.5786 4.17157 17.8284C3.42143 17.0783 3 16.0609 3 15V9Z" stroke="#1A1523" stroke-width="1.5" stroke-linecap="round" stroke-linejoin="round"/>
  <path d="M10 9L15 12L10 15V9Z" stroke="#1A1523" stroke-width="1.5" stroke-linecap="round" stroke-linejoin="round"/>
</svg>